<svg viewBox="0 0 24 22" fill="none" xmlns="http://www.w3.org/2000/svg">
<path fill-rule="evenodd" clip-rule="evenodd" d="M1.78238 0H7.41629C8.03873 0 8.40567 0.698547 8.05232 1.21091L2.02837 9.95362C1.74433 10.3661 1.74433 10.9104 2.02837 11.3222L8.05232 20.0649C8.40567 20.5773 8.03873 21.2758 7.41629 21.2758H1.78238C0.798437 21.2758 0 20.478 0 19.4934V10.6379V1.78238C0 0.798437 0.798437 0 1.78238 0ZM14.3107 0.839208L3.42269 9.99575C3.02382 10.3308 3.02382 10.9444 3.42269 11.28L14.3107 20.4366C14.9548 20.9788 15.7703 21.2758 16.6122 21.2758H22.2176C23.2022 21.2758 24 20.4774 24 19.4934V10.6379V1.78238C24 0.798437 23.2022 0 22.2176 0H16.6122C15.7696 0 14.9548 0.296951 14.3107 0.839208ZM5.9226 11.2578C5.91823 11.3191 5.91823 11.3759 5.91823 11.4022C5.91823 11.7477 6.01007 11.9708 6.1894 12.0582C6.44745 12.1895 6.67051 12.2113 7.68084 12.2113C8.31503 12.2113 8.74803 12.1851 8.96672 12.137C9.39534 12.0451 9.5528 11.8089 9.5528 11.271C9.5528 10.6849 9.33411 10.44 8.77865 10.4137C8.62994 10.405 8.2363 10.3918 8.15758 10.3918H7.33094C7.04227 10.3875 7.02478 10.3831 6.9723 10.37C6.84546 10.3394 6.78422 10.2606 6.78422 10.1382C6.78422 9.97197 6.86295 9.91074 7.09913 9.89324C7.23909 9.8845 7.61961 9.87575 7.9039 9.87575C8.47686 9.87575 8.56433 9.91074 8.56433 10.1644H9.43033C9.43033 9.72704 9.36473 9.54772 9.16354 9.41213C8.9536 9.27655 8.71741 9.2503 7.69396 9.2503C7.0554 9.2503 6.71424 9.27217 6.47806 9.33341C6.05819 9.434 5.90948 9.65706 5.90948 10.1819C5.90948 10.5799 6.0057 10.8117 6.21564 10.9211C6.40371 11.0173 6.62677 11.0479 7.16474 11.0479H7.96951C8.34405 11.0515 8.41313 11.0521 8.47806 11.0689C8.49275 11.0726 8.50722 11.0773 8.52497 11.0829C8.61682 11.1135 8.67368 11.201 8.67368 11.3191C8.67368 11.5596 8.55121 11.5903 7.52339 11.5903C7.24347 11.5903 6.99416 11.5728 6.92856 11.5465C6.82359 11.5072 6.80172 11.459 6.79297 11.2578H5.9226ZM9.9315 12.1895H10.815V11.1747H12.9144V10.5143H10.815V9.93261H13.0281V9.27217H9.9315V12.1895ZM13.4293 12.1895H16.0667C16.3772 12.1895 16.5084 12.1807 16.6746 12.1457C16.9939 12.0845 17.2388 11.8133 17.2869 11.4634C17.3132 11.2972 17.3307 10.9954 17.3307 10.733C17.3307 10.593 17.3219 10.3918 17.3132 10.2563C17.2826 9.8845 17.2169 9.7008 17.0551 9.54334C16.8539 9.34215 16.5653 9.27217 15.9486 9.27217H13.4293V12.1895ZM14.3172 11.494V9.99821H15.8217C16.3335 9.99821 16.4384 10.1251 16.4384 10.7374C16.4384 11.2404 16.3816 11.3934 16.1672 11.459C16.0623 11.494 16.0448 11.494 15.8042 11.494H14.3172ZM17.7275 12.1895H18.611V11.4547H19.9712C20.2118 11.4547 20.2818 11.4634 20.3517 11.5115C20.4305 11.5684 20.4611 11.6602 20.4611 11.8264V12.1895H21.3621V11.7302C21.3621 11.4809 21.3271 11.3497 21.2396 11.2491C21.1521 11.1441 21.0384 11.1091 20.7323 11.0916C20.7155 11.0916 20.6783 11.0891 20.6323 11.0859L20.6323 11.0859L20.5879 11.0829C20.9816 11.026 21.1172 10.9823 21.2177 10.8773C21.3446 10.7417 21.4014 10.5318 21.4014 10.2169C21.4014 9.76203 21.2834 9.49523 21.0297 9.37714C20.8591 9.29842 20.6623 9.27217 20.2424 9.27217H17.7275V12.1895ZM18.611 10.7417V9.98947H20.0281C20.2949 9.98947 20.3692 10.0026 20.4348 10.0726C20.4917 10.1338 20.5092 10.2125 20.5092 10.4006C20.5092 10.6893 20.4261 10.7417 19.9975 10.7417H18.611Z" fill="currentColor"/>
</svg>
