<svg viewBox="0 0 24 24" fill="none" xmlns="http://www.w3.org/2000/svg">
<path d="M7.41629 2H1.78238C0.798437 2 0 2.79844 0 3.78238V12.6379V21.4934C0 22.478 0.798437 23.2758 1.78238 23.2758H7.41629C8.03873 23.2758 8.40567 22.5773 8.05232 22.0649L2.02837 13.3222C1.74433 12.9104 1.74433 12.3661 2.02837 11.9536L8.05232 3.21091C8.40567 2.69855 8.03873 2 7.41629 2Z" fill="currentColor"/>
<path d="M14.3107 2.83921L3.42269 11.9958C3.02382 12.3308 3.02382 12.9444 3.42269 13.28L14.3107 22.4366C14.9548 22.9788 15.7703 23.2758 16.6122 23.2758H22.2176C23.2022 23.2758 24 22.4774 24 21.4934V12.6379V3.78238C24 2.79844 23.2022 2 22.2176 2H16.6122C15.7696 2 14.9548 2.29695 14.3107 2.83921Z" fill="currentColor"/>
<path d="M5.9226 12.2578C5.91823 12.3191 5.91823 12.3759 5.91823 12.4022C5.91823 12.7477 6.01007 12.9708 6.1894 13.0582C6.44745 13.1895 6.67051 13.2113 7.68084 13.2113C8.31503 13.2113 8.74803 13.1851 8.96672 13.137C9.39534 13.0451 9.5528 12.8089 9.5528 12.271C9.5528 11.6849 9.33411 11.44 8.77865 11.4137C8.62994 11.405 8.2363 11.3918 8.15758 11.3918H7.33094C7.04227 11.3875 7.02478 11.3831 6.9723 11.37C6.84546 11.3394 6.78422 11.2606 6.78422 11.1382C6.78422 10.972 6.86295 10.9107 7.09913 10.8932C7.23909 10.8845 7.61961 10.8757 7.9039 10.8757C8.47686 10.8757 8.56433 10.9107 8.56433 11.1644H9.43033C9.43033 10.727 9.36473 10.5477 9.16354 10.4121C8.9536 10.2765 8.71741 10.2503 7.69396 10.2503C7.0554 10.2503 6.71424 10.2722 6.47806 10.3334C6.05819 10.434 5.90948 10.6571 5.90948 11.1819C5.90948 11.5799 6.0057 11.8117 6.21564 11.9211C6.40371 12.0173 6.62677 12.0479 7.16474 12.0479H7.96951C8.42875 12.0523 8.42875 12.0523 8.52497 12.0829C8.61682 12.1135 8.67368 12.201 8.67368 12.3191C8.67368 12.5596 8.55121 12.5903 7.52339 12.5903C7.24347 12.5903 6.99416 12.5728 6.92856 12.5465C6.82359 12.5072 6.80172 12.459 6.79297 12.2578H5.9226ZM9.9315 13.1895H10.815V12.1747H12.9144V11.5143H10.815V10.9326H13.0281V10.2722H9.9315V13.1895ZM13.4293 13.1895H16.0667C16.3772 13.1895 16.5084 13.1807 16.6746 13.1457C16.9939 13.0845 17.2388 12.8133 17.2869 12.4634C17.3132 12.2972 17.3307 11.9954 17.3307 11.733C17.3307 11.593 17.3219 11.3918 17.3132 11.2563C17.2825 10.8845 17.2169 10.7008 17.0551 10.5433C16.8539 10.3422 16.5653 10.2722 15.9486 10.2722H13.4293V13.1895ZM14.3172 12.494V10.9982H15.8217C16.3334 10.9982 16.4384 11.1251 16.4384 11.7374C16.4384 12.2404 16.3816 12.3934 16.1672 12.459C16.0623 12.494 16.0448 12.494 15.8042 12.494H14.3172ZM17.7275 13.1895H18.611V12.4547H19.9712C20.2118 12.4547 20.2818 12.4634 20.3517 12.5115C20.4305 12.5684 20.4611 12.6602 20.4611 12.8264V13.1895H21.3621V12.7302C21.3621 12.4809 21.3271 12.3497 21.2396 12.2491C21.1521 12.1441 21.0384 12.1091 20.7323 12.0916C20.7104 12.0916 20.6535 12.0873 20.5879 12.0829C20.9816 12.026 21.1172 11.9823 21.2177 11.8773C21.3446 11.7417 21.4014 11.5318 21.4014 11.2169C21.4014 10.762 21.2834 10.4952 21.0297 10.3771C20.8591 10.2984 20.6623 10.2722 20.2424 10.2722H17.7275V13.1895ZM18.611 11.7417V10.9895H20.0281C20.2949 10.9895 20.3692 11.0026 20.4348 11.0726C20.4917 11.1338 20.5092 11.2125 20.5092 11.4006C20.5092 11.6893 20.4261 11.7417 19.9975 11.7417H18.611Z" fill="black"/>
</svg>
