<svg viewBox="0 0 24 24" fill="none" xmlns="http://www.w3.org/2000/svg">
<path d="M20.6137 7.98535H20.4087V8.39544H20.8188V8.15161C20.7966 8.09619 20.78 8.04077 20.7578 7.98535H20.6137V7.98535Z" fill="currentColor"/>
<path d="M21.246 9.60352H21.2183V10.0136H21.3069C21.2848 9.87506 21.2737 9.73652 21.246 9.60352Z" fill="currentColor"/>
<path d="M21.4011 10.6782H21.2183V11.0883H21.4233C21.4178 10.9498 21.4178 10.8112 21.4011 10.6782Z" fill="currentColor"/>
<path d="M21.2183 11.7534V12.1635H21.4288C21.4344 12.025 21.4455 11.892 21.451 11.7534H21.2238H21.2183Z" fill="currentColor"/>
<path d="M21.2183 13.2451H21.318C21.3402 13.1065 21.3623 12.9735 21.379 12.835H21.2183V13.2451Z" fill="currentColor"/>
<path d="M19.1124 5.16424C19.0736 5.11991 19.0349 5.08112 18.9961 5.03678C18.9739 5.00907 18.9517 4.98691 18.924 4.9592C18.8797 4.90932 18.8353 4.85945 18.791 4.80957V5.16424H19.1124V5.16424Z" fill="currentColor"/>
<path d="M19.5996 6.36719V6.77728H20.0097V6.45031C19.9931 6.42261 19.9765 6.3949 19.9598 6.36719H19.5996Z" fill="currentColor"/>
<path d="M20.4087 7.1875V7.31496H20.4697C20.4475 7.27063 20.4309 7.22629 20.4087 7.1875Z" fill="currentColor"/>
<path d="M20.0097 7.44775H19.5996V7.85784H20.0097V7.44775Z" fill="currentColor"/>
<path d="M20.4087 9.06055V9.26559V9.47064H20.6137H20.8188V9.26559V9.06055H20.6137H20.4087Z" fill="currentColor"/>
<path d="M20.0097 8.52295H19.5996V8.93304H20.0097V8.52295Z" fill="currentColor"/>
<path d="M20.4087 10.1411V10.3462V10.5512H20.6137H20.8188V10.3462V10.1411H20.6137H20.4087Z" fill="currentColor"/>
<path d="M20.0097 9.60352H19.5996V10.0136H20.0097V9.60352Z" fill="currentColor"/>
<path d="M20.4087 11.2163V11.4214V11.6264H20.6137H20.8188V11.4214V11.2163H20.6137H20.4087Z" fill="currentColor"/>
<path d="M20.0097 10.6782H19.5996V11.0883H20.0097V10.6782Z" fill="currentColor"/>
<path d="M20.4087 12.2969V12.5019V12.707H20.6137H20.8188V12.5019V12.2969H20.6137H20.4087Z" fill="currentColor"/>
<path d="M20.0097 11.7534H19.5996V12.1635H20.0097V11.7534Z" fill="currentColor"/>
<path d="M20.4087 13.3716V13.5766V13.7817H20.6137H20.8188V13.5766V13.3716H20.6137H20.4087Z" fill="currentColor"/>
<path d="M20.0097 12.835H19.5996V13.2451H20.0097V12.835Z" fill="currentColor"/>
<path d="M20.4087 14.4468V14.6518V14.8569H20.6137H20.8188V14.6518V14.4468H20.6137H20.4087Z" fill="currentColor"/>
<path d="M20.0097 13.9097H19.5996V14.3198H20.0097V13.9097Z" fill="currentColor"/>
<path d="M20.4087 15.5283V15.9384H20.5029C20.5362 15.8719 20.5694 15.8054 20.6027 15.7334C20.6027 15.7223 20.6137 15.7112 20.6193 15.7057C20.647 15.6502 20.6692 15.5893 20.6913 15.5283H20.4142H20.4087Z" fill="currentColor"/>
<path d="M20.0097 14.9902H19.5996V15.4003H20.0097V14.9902Z" fill="currentColor"/>
<path d="M20.0097 16.0649H19.5996V16.475H20.0097V16.0649Z" fill="currentColor"/>
<path d="M19.5996 17.5057C19.6827 17.3893 19.7603 17.2674 19.8379 17.1455H19.5996V17.5057Z" fill="currentColor"/>
<path d="M17.9814 4.2168V4.62689H18.3915V4.38859C18.3306 4.32763 18.2641 4.27776 18.2031 4.2168H17.9814Z" fill="currentColor"/>
<path d="M18.791 5.83008V6.03512V6.24017H18.9961H19.2011V6.03512V5.83008H18.9961H18.791Z" fill="currentColor"/>
<path d="M18.3915 5.29248H17.9814V5.70257H18.3915V5.29248Z" fill="currentColor"/>
<path d="M18.791 6.91016V7.1152V7.32025H18.9961H19.2011V7.1152V6.91016H18.9961H18.791Z" fill="currentColor"/>
<path d="M18.3915 6.36719H17.9814V6.77728H18.3915V6.36719Z" fill="currentColor"/>
<path d="M18.791 7.98535V8.1904V8.39544H18.9961H19.2011V8.1904V7.98535H18.9961H18.791Z" fill="currentColor"/>
<path d="M18.3915 7.44775H17.9814V7.85784H18.3915V7.44775Z" fill="currentColor"/>
<path d="M18.791 9.06055V9.26559V9.47064H18.9961H19.2011V9.26559V9.06055H18.9961H18.791Z" fill="currentColor"/>
<path d="M18.3915 8.52295H17.9814V8.93304H18.3915V8.52295Z" fill="currentColor"/>
<path d="M18.791 10.1411V10.3462V10.5512H18.9961H19.2011V10.3462V10.1411H18.9961H18.791Z" fill="currentColor"/>
<path d="M18.3915 9.60352H17.9814V10.0136H18.3915V9.60352Z" fill="currentColor"/>
<path d="M18.791 11.2163V11.4214V11.6264H18.9961H19.2011V11.4214V11.2163H18.9961H18.791Z" fill="currentColor"/>
<path d="M18.3915 10.6782H17.9814V11.0883H18.3915V10.6782Z" fill="currentColor"/>
<path d="M18.791 12.2969V12.5019V12.707H18.9961H19.2011V12.5019V12.2969H18.9961H18.791Z" fill="currentColor"/>
<path d="M18.3915 11.7534H17.9814V12.1635H18.3915V11.7534Z" fill="currentColor"/>
<path d="M18.791 13.3716V13.5766V13.7817H18.9961H19.2011V13.5766V13.3716H18.9961H18.791Z" fill="currentColor"/>
<path d="M18.3915 12.835H17.9814V13.2451H18.3915V12.835Z" fill="currentColor"/>
<path d="M18.791 14.4468V14.6518V14.8569H18.9961H19.2011V14.6518V14.4468H18.9961H18.791Z" fill="currentColor"/>
<path d="M18.3915 13.9097H17.9814V14.3198H18.3915V13.9097Z" fill="currentColor"/>
<path d="M18.791 15.5283V15.7334V15.9384H18.9961H19.2011V15.7334V15.5283H18.9961H18.791Z" fill="currentColor"/>
<path d="M18.3915 14.9902H17.9814V15.4003H18.3915V14.9902Z" fill="currentColor"/>
<path d="M18.791 16.603V16.8081V17.0131H18.9961H19.2011V16.8081V16.603H18.9961H18.791Z" fill="currentColor"/>
<path d="M18.3915 16.0649H17.9814V16.475H18.3915V16.0649Z" fill="currentColor"/>
<path d="M18.791 17.6836V18.0937H19.1623C19.1623 18.0937 19.19 18.0549 19.2011 18.0383V17.6836H18.791Z" fill="currentColor"/>
<path d="M18.3915 17.1396H17.9814V17.5497H18.3915V17.1396Z" fill="currentColor"/>
<path d="M18.3915 18.2212H17.9814V18.6313H18.3915V18.2212Z" fill="currentColor"/>
<path d="M17.9814 19.3021L17.9929 19.2964H17.9814V19.3021Z" fill="currentColor"/>
<path d="M15.7646 2.59912H15.5596V3.00921H15.9697V2.62683C15.9697 2.62683 15.9364 2.6102 15.9198 2.59912H15.7646V2.59912Z" fill="currentColor"/>
<path d="M17.1782 3.67383V3.87887V4.08392H17.3833H17.5883V3.87887V3.67383H17.3833H17.1782Z" fill="currentColor"/>
<path d="M16.7787 3.13623H16.3687V3.54632H16.7787V3.13623Z" fill="currentColor"/>
<path d="M17.1782 4.75439V4.95944V5.16448H17.3833H17.5883V4.95944V4.75439H17.3833H17.1782Z" fill="currentColor"/>
<path d="M16.7787 4.2168H16.3687V4.62689H16.7787V4.2168Z" fill="currentColor"/>
<path d="M17.1782 5.83008V6.03512V6.24017H17.3833H17.5883V6.03512V5.83008H17.3833H17.1782Z" fill="currentColor"/>
<path d="M16.7787 5.29248H16.3687V5.70257H16.7787V5.29248Z" fill="currentColor"/>
<path d="M17.1782 6.91016V7.1152V7.32025H17.3833H17.5883V7.1152V6.91016H17.3833H17.1782Z" fill="currentColor"/>
<path d="M16.7787 6.36719H16.3687V6.77728H16.7787V6.36719Z" fill="currentColor"/>
<path d="M17.1782 7.98535V8.1904V8.39544H17.3833H17.5883V8.1904V7.98535H17.3833H17.1782Z" fill="currentColor"/>
<path d="M16.7787 7.44775H16.3687V7.85784H16.7787V7.44775Z" fill="currentColor"/>
<path d="M17.1782 9.06055V9.26559V9.47064H17.3833H17.5883V9.26559V9.06055H17.3833H17.1782Z" fill="currentColor"/>
<path d="M16.7787 8.52295H16.3687V8.93304H16.7787V8.52295Z" fill="currentColor"/>
<path d="M17.1782 10.1411V10.3462V10.5512H17.3833H17.5883V10.3462V10.1411H17.3833H17.1782Z" fill="currentColor"/>
<path d="M16.7787 9.60352H16.3687V10.0136H16.7787V9.60352Z" fill="currentColor"/>
<path d="M17.1782 11.2163V11.4214V11.6264H17.3833H17.5883V11.4214V11.2163H17.3833H17.1782Z" fill="currentColor"/>
<path d="M16.7787 10.6782H16.3687V11.0883H16.7787V10.6782Z" fill="currentColor"/>
<path d="M17.1782 12.2969V12.5019V12.707H17.3833H17.5883V12.5019V12.2969H17.3833H17.1782Z" fill="currentColor"/>
<path d="M16.7787 11.7534H16.3687V12.1635H16.7787V11.7534Z" fill="currentColor"/>
<path d="M17.1782 13.3716V13.5766V13.7817H17.3833H17.5883V13.5766V13.3716H17.3833H17.1782Z" fill="currentColor"/>
<path d="M16.7787 12.835H16.3687V13.2451H16.7787V12.835Z" fill="currentColor"/>
<path d="M17.1782 14.4468V14.6518V14.8569H17.3833H17.5883V14.6518V14.4468H17.3833H17.1782Z" fill="currentColor"/>
<path d="M16.7787 13.9097H16.3687V14.3198H16.7787V13.9097Z" fill="currentColor"/>
<path d="M17.1782 15.5283V15.7334V15.9384H17.3833H17.5883V15.7334V15.5283H17.3833H17.1782Z" fill="currentColor"/>
<path d="M16.7787 14.9902H16.3687V15.4003H16.7787V14.9902Z" fill="currentColor"/>
<path d="M17.1782 16.603V16.8081V17.0131H17.3833H17.5883V16.8081V16.603H17.3833H17.1782Z" fill="currentColor"/>
<path d="M16.7787 16.0649H16.3687V16.475H16.7787V16.0649Z" fill="currentColor"/>
<path d="M17.1782 17.6836V17.8886V18.0937H17.3833H17.5883V17.8886V17.6836H17.3833H17.1782Z" fill="currentColor"/>
<path d="M16.7787 17.1396H16.3687V17.5497H16.7787V17.1396Z" fill="currentColor"/>
<path d="M17.1782 18.7583V18.9633V19.1684H17.3833H17.5883V18.9633V18.7583H17.3833H17.1782Z" fill="currentColor"/>
<path d="M16.7787 18.2212H16.3687V18.6313H16.7787V18.2212Z" fill="currentColor"/>
<path d="M17.1782 19.9453C17.2281 19.9121 17.278 19.8733 17.3279 19.8345H17.1782V19.9453Z" fill="currentColor"/>
<path d="M16.7787 19.2964H16.3687V19.7065H16.7787V19.2964Z" fill="currentColor"/>
<path d="M16.3687 20.4653C16.4185 20.4376 16.4739 20.4043 16.5238 20.3711H16.3687V20.4653Z" fill="currentColor"/>
<path d="M14.7515 2.47108H15.1616V2.24387C15.0286 2.18845 14.89 2.14411 14.7515 2.09424V2.47108Z" fill="currentColor"/>
<path d="M14.3137 1.93374C14.2583 1.91711 14.2028 1.90603 14.1474 1.8894C14.0809 1.86723 14.0089 1.85615 13.9424 1.83398V1.93374H14.3137V1.93374Z" fill="currentColor"/>
<path d="M15.5596 3.67383V3.87887V4.08392H15.7646H15.9697V3.87887V3.67383H15.7646H15.5596Z" fill="currentColor"/>
<path d="M15.1616 3.13623H14.7515V3.54632H15.1616V3.13623Z" fill="currentColor"/>
<path d="M15.5596 4.75439V4.95944V5.16448H15.7646H15.9697V4.95944V4.75439H15.7646H15.5596Z" fill="currentColor"/>
<path d="M15.1616 4.2168H14.7515V4.62689H15.1616V4.2168Z" fill="currentColor"/>
<path d="M15.5596 5.83008V6.03512V6.24017H15.7646H15.9697V6.03512V5.83008H15.7646H15.5596Z" fill="currentColor"/>
<path d="M15.1616 5.29248H14.7515V5.70257H15.1616V5.29248Z" fill="currentColor"/>
<path d="M15.5596 6.91016V7.1152V7.32025H15.7646H15.9697V7.1152V6.91016H15.7646H15.5596Z" fill="currentColor"/>
<path d="M15.1616 6.36719H14.7515V6.77728H15.1616V6.36719Z" fill="currentColor"/>
<path d="M15.5596 7.98535V8.1904V8.39544H15.7646H15.9697V8.1904V7.98535H15.7646H15.5596Z" fill="currentColor"/>
<path d="M15.1616 7.44775H14.7515V7.85784H15.1616V7.44775Z" fill="currentColor"/>
<path d="M15.5596 9.06055V9.26559V9.47064H15.7646H15.9697V9.26559V9.06055H15.7646H15.5596Z" fill="currentColor"/>
<path d="M15.1616 8.52295H14.7515V8.93304H15.1616V8.52295Z" fill="currentColor"/>
<path d="M15.5596 10.1411V10.3462V10.5512H15.7646H15.9697V10.3462V10.1411H15.7646H15.5596Z" fill="currentColor"/>
<path d="M15.1616 9.60352H14.7515V10.0136H15.1616V9.60352Z" fill="currentColor"/>
<path d="M15.5596 11.2163V11.4214V11.6264H15.7646H15.9697V11.4214V11.2163H15.7646H15.5596Z" fill="currentColor"/>
<path d="M15.1616 10.6782H14.7515V11.0883H15.1616V10.6782Z" fill="currentColor"/>
<path d="M15.5596 12.2969V12.5019V12.707H15.7646H15.9697V12.5019V12.2969H15.7646H15.5596Z" fill="currentColor"/>
<path d="M15.1616 11.7534H14.7515V12.1635H15.1616V11.7534Z" fill="currentColor"/>
<path d="M15.5596 13.3716V13.5766V13.7817H15.7646H15.9697V13.5766V13.3716H15.7646H15.5596Z" fill="currentColor"/>
<path d="M15.1616 12.835H14.7515V13.2451H15.1616V12.835Z" fill="currentColor"/>
<path d="M15.5596 14.4468V14.6518V14.8569H15.7646H15.9697V14.6518V14.4468H15.7646H15.5596Z" fill="currentColor"/>
<path d="M15.1616 13.9097H14.7515V14.3198H15.1616V13.9097Z" fill="currentColor"/>
<path d="M15.5596 15.5283V15.7334V15.9384H15.7646H15.9697V15.7334V15.5283H15.7646H15.5596Z" fill="currentColor"/>
<path d="M15.1616 14.9902H14.7515V15.4003H15.1616V14.9902Z" fill="currentColor"/>
<path d="M15.5596 16.603V16.8081V17.0131H15.7646H15.9697V16.8081V16.603H15.7646H15.5596Z" fill="currentColor"/>
<path d="M15.1616 16.0649H14.7515V16.475H15.1616V16.0649Z" fill="currentColor"/>
<path d="M15.5596 17.6836V17.8886V18.0937H15.7646H15.9697V17.8886V17.6836H15.7646H15.5596Z" fill="currentColor"/>
<path d="M15.1616 17.1396H14.7515V17.5497H15.1616V17.1396Z" fill="currentColor"/>
<path d="M15.5596 18.7583V18.9633V19.1684H15.7646H15.9697V18.9633V18.7583H15.7646H15.5596Z" fill="currentColor"/>
<path d="M15.1616 18.2212H14.7515V18.6313H15.1616V18.2212Z" fill="currentColor"/>
<path d="M15.5596 19.8345V20.0395V20.2446H15.7646H15.9697V20.0395V19.8345H15.7646H15.5596Z" fill="currentColor"/>
<path d="M15.1616 19.2964H14.7515V19.7065H15.1616V19.2964Z" fill="currentColor"/>
<path d="M15.1616 20.3765H14.7515V20.7866H15.1616V20.3765Z" fill="currentColor"/>
<path d="M13.9424 2.59912V2.80417V3.00921H14.153H14.358V2.80417V2.59912H14.153H13.9424Z" fill="currentColor"/>
<path d="M13.5483 2.06104H13.1382V2.47113H13.5483V2.06104Z" fill="currentColor"/>
<path d="M13.9424 3.67383V3.87887V4.08392H14.153H14.358V3.87887V3.67383H14.153H13.9424Z" fill="currentColor"/>
<path d="M13.5483 3.13623H13.1382V3.54632H13.5483V3.13623Z" fill="currentColor"/>
<path d="M13.9424 4.75439V4.95944V5.16448H14.153H14.358V4.95944V4.75439H14.153H13.9424Z" fill="currentColor"/>
<path d="M13.5483 4.2168H13.1382V4.62689H13.5483V4.2168Z" fill="currentColor"/>
<path d="M13.9424 5.83008V6.03512V6.24017H14.153H14.358V6.03512V5.83008H14.153H13.9424Z" fill="currentColor"/>
<path d="M13.5483 5.29248H13.1382V5.70257H13.5483V5.29248Z" fill="currentColor"/>
<path d="M13.9424 6.91016V7.1152V7.32025H14.153H14.358V7.1152V6.91016H14.153H13.9424Z" fill="currentColor"/>
<path d="M13.5483 6.36719H13.1382V6.77728H13.5483V6.36719Z" fill="currentColor"/>
<path d="M13.9424 7.98535V8.1904V8.39544H14.153H14.358V8.1904V7.98535H14.153H13.9424Z" fill="currentColor"/>
<path d="M13.5483 7.44775H13.1382V7.85784H13.5483V7.44775Z" fill="currentColor"/>
<path d="M13.9424 9.06055V9.26559V9.47064H14.153H14.358V9.26559V9.06055H14.153H13.9424Z" fill="currentColor"/>
<path d="M13.5483 8.52295H13.1382V8.93304H13.5483V8.52295Z" fill="currentColor"/>
<path d="M13.9424 10.1411V10.3462V10.5512H14.153H14.358V10.3462V10.1411H14.153H13.9424Z" fill="currentColor"/>
<path d="M13.5483 9.60352H13.1382V10.0136H13.5483V9.60352Z" fill="currentColor"/>
<path d="M13.9424 11.2163V11.4214V11.6264H14.153H14.358V11.4214V11.2163H14.153H13.9424Z" fill="currentColor"/>
<path d="M13.5483 10.6782H13.1382V11.0883H13.5483V10.6782Z" fill="currentColor"/>
<path d="M13.9424 12.2969V12.5019V12.707H14.153H14.358V12.5019V12.2969H14.153H13.9424Z" fill="currentColor"/>
<path d="M13.5483 11.7534H13.1382V12.1635H13.5483V11.7534Z" fill="currentColor"/>
<path d="M13.9424 13.3716V13.5766V13.7817H14.153H14.358V13.5766V13.3716H14.153H13.9424Z" fill="currentColor"/>
<path d="M13.5483 12.835H13.1382V13.2451H13.5483V12.835Z" fill="currentColor"/>
<path d="M13.9424 14.4468V14.6518V14.8569H14.153H14.358V14.6518V14.4468H14.153H13.9424Z" fill="currentColor"/>
<path d="M13.5483 13.9097H13.1382V14.3198H13.5483V13.9097Z" fill="currentColor"/>
<path d="M13.9424 15.5283V15.7334V15.9384H14.153H14.358V15.7334V15.5283H14.153H13.9424Z" fill="currentColor"/>
<path d="M13.5483 14.9902H13.1382V15.4003H13.5483V14.9902Z" fill="currentColor"/>
<path d="M13.9424 16.603V16.8081V17.0131H14.153H14.358V16.8081V16.603H14.153H13.9424Z" fill="currentColor"/>
<path d="M13.5483 16.0649H13.1382V16.475H13.5483V16.0649Z" fill="currentColor"/>
<path d="M13.9424 17.6836V17.8886V18.0937H14.153H14.358V17.8886V17.6836H14.153H13.9424Z" fill="currentColor"/>
<path d="M13.5483 17.1396H13.1382V17.5497H13.5483V17.1396Z" fill="currentColor"/>
<path d="M13.9424 18.7583V18.9633V19.1684H14.153H14.358V18.9633V18.7583H14.153H13.9424Z" fill="currentColor"/>
<path d="M13.5483 18.2212H13.1382V18.6313H13.5483V18.2212Z" fill="currentColor"/>
<path d="M13.9424 19.8345V20.0395V20.2446H14.153H14.358V20.0395V19.8345H14.153H13.9424Z" fill="currentColor"/>
<path d="M13.5483 19.2964H13.1382V19.7065H13.5483V19.2964Z" fill="currentColor"/>
<path d="M13.9424 20.9146V21.1196V21.3246H14.153H14.358V21.1196V20.9146H14.153H13.9424Z" fill="currentColor"/>
<path d="M13.5483 20.3765H13.1382V20.7866H13.5483V20.3765Z" fill="currentColor"/>
<path d="M13.1382 21.6733C13.2767 21.6456 13.4097 21.6179 13.5483 21.5847V21.4517H13.1382V21.6733Z" fill="currentColor"/>
<path d="M12.3351 1.52441H12.3296V1.9345H12.7397V1.58537C12.6732 1.57429 12.6011 1.56321 12.5346 1.55212C12.4681 1.54104 12.4016 1.52996 12.3351 1.52441V1.52441Z" fill="currentColor"/>
<path d="M12.3296 2.59912V2.80417V3.00921H12.5346H12.7397V2.80417V2.59912H12.5346H12.3296Z" fill="currentColor"/>
<path d="M11.9301 2.06104H11.52V2.47113H11.9301V2.06104Z" fill="currentColor"/>
<path d="M12.3296 3.67383V3.87887V4.08392H12.5346H12.7397V3.87887V3.67383H12.5346H12.3296Z" fill="currentColor"/>
<path d="M11.9301 3.13623H11.52V3.54632H11.9301V3.13623Z" fill="currentColor"/>
<path d="M12.3296 4.75439V4.95944V5.16448H12.5346H12.7397V4.95944V4.75439H12.5346H12.3296Z" fill="currentColor"/>
<path d="M11.9301 4.2168H11.52V4.62689H11.9301V4.2168Z" fill="currentColor"/>
<path d="M12.3296 5.83008V6.03512V6.24017H12.5346H12.7397V6.03512V5.83008H12.5346H12.3296Z" fill="currentColor"/>
<path d="M11.9301 5.29248H11.52V5.70257H11.9301V5.29248Z" fill="currentColor"/>
<path d="M12.3296 6.91016V7.1152V7.32025H12.5346H12.7397V7.1152V6.91016H12.5346H12.3296Z" fill="currentColor"/>
<path d="M11.9301 6.36719H11.52V6.77728H11.9301V6.36719Z" fill="currentColor"/>
<path d="M12.3296 7.98535V8.1904V8.39544H12.5346H12.7397V8.1904V7.98535H12.5346H12.3296Z" fill="currentColor"/>
<path d="M11.9301 7.44775H11.52V7.85784H11.9301V7.44775Z" fill="currentColor"/>
<path d="M12.3296 9.06055V9.26559V9.47064H12.5346H12.7397V9.26559V9.06055H12.5346H12.3296Z" fill="currentColor"/>
<path d="M11.9301 8.52295H11.52V8.93304H11.9301V8.52295Z" fill="currentColor"/>
<path d="M12.3296 10.1411V10.3462V10.5512H12.5346H12.7397V10.3462V10.1411H12.5346H12.3296Z" fill="currentColor"/>
<path d="M11.9301 9.60352H11.52V10.0136H11.9301V9.60352Z" fill="currentColor"/>
<path d="M12.3296 11.2163V11.4214V11.6264H12.5346H12.7397V11.4214V11.2163H12.5346H12.3296Z" fill="currentColor"/>
<path d="M11.9301 10.6782H11.52V11.0883H11.9301V10.6782Z" fill="currentColor"/>
<path d="M12.3296 12.2969V12.5019V12.707H12.5346H12.7397V12.5019V12.2969H12.5346H12.3296Z" fill="currentColor"/>
<path d="M11.9301 11.7534H11.52V12.1635H11.9301V11.7534Z" fill="currentColor"/>
<path d="M12.3296 13.3716V13.5766V13.7817H12.5346H12.7397V13.5766V13.3716H12.5346H12.3296Z" fill="currentColor"/>
<path d="M11.9301 12.835H11.52V13.2451H11.9301V12.835Z" fill="currentColor"/>
<path d="M12.3296 14.4468V14.6518V14.8569H12.5346H12.7397V14.6518V14.4468H12.5346H12.3296Z" fill="currentColor"/>
<path d="M11.9301 13.9097H11.52V14.3198H11.9301V13.9097Z" fill="currentColor"/>
<path d="M12.3296 15.5283V15.7334V15.9384H12.5346H12.7397V15.7334V15.5283H12.5346H12.3296Z" fill="currentColor"/>
<path d="M11.9301 14.9902H11.52V15.4003H11.9301V14.9902Z" fill="currentColor"/>
<path d="M12.3296 16.603V16.8081V17.0131H12.5346H12.7397V16.8081V16.603H12.5346H12.3296Z" fill="currentColor"/>
<path d="M11.9301 16.0649H11.52V16.475H11.9301V16.0649Z" fill="currentColor"/>
<path d="M12.3296 17.6836V17.8886V18.0937H12.5346H12.7397V17.8886V17.6836H12.5346H12.3296Z" fill="currentColor"/>
<path d="M11.9301 17.1396H11.52V17.5497H11.9301V17.1396Z" fill="currentColor"/>
<path d="M12.3296 18.7583V18.9633V19.1684H12.5346H12.7397V18.9633V18.7583H12.5346H12.3296Z" fill="currentColor"/>
<path d="M11.9301 18.2212H11.52V18.6313H11.9301V18.2212Z" fill="currentColor"/>
<path d="M12.3296 19.8345V20.0395V20.2446H12.5346H12.7397V20.0395V19.8345H12.5346H12.3296Z" fill="currentColor"/>
<path d="M11.9301 19.2964H11.52V19.7065H11.9301V19.2964Z" fill="currentColor"/>
<path d="M12.3296 20.9146V21.1196V21.3246H12.5346H12.7397V21.1196V20.9146H12.5346H12.3296Z" fill="currentColor"/>
<path d="M11.9301 20.3765H11.52V20.7866H11.9301V20.3765Z" fill="currentColor"/>
<path d="M11.52 21.8396C11.6586 21.8396 11.7916 21.8285 11.9301 21.8174V21.4517H11.52V21.8396V21.8396Z" fill="currentColor"/>
<path d="M10.7109 1.52441V1.72946V1.9345H10.916H11.121V1.72946V1.52441H10.916H10.7109Z" fill="currentColor"/>
<path d="M10.7109 2.59912V2.80417V3.00921H10.916H11.121V2.80417V2.59912H10.916H10.7109Z" fill="currentColor"/>
<path d="M10.3115 2.06104H9.90137V2.47113H10.3115V2.06104Z" fill="currentColor"/>
<path d="M10.7109 3.67383V3.87887V4.08392H10.916H11.121V3.87887V3.67383H10.916H10.7109Z" fill="currentColor"/>
<path d="M10.3115 3.13623H9.90137V3.54632H10.3115V3.13623Z" fill="currentColor"/>
<path d="M10.7109 4.75439V4.95944V5.16448H10.916H11.121V4.95944V4.75439H10.916H10.7109Z" fill="currentColor"/>
<path d="M10.3115 4.2168H9.90137V4.62689H10.3115V4.2168Z" fill="currentColor"/>
<path d="M10.7109 5.83008V6.03512V6.24017H10.916H11.121V6.03512V5.83008H10.916H10.7109Z" fill="currentColor"/>
<path d="M10.3115 5.29248H9.90137V5.70257H10.3115V5.29248Z" fill="currentColor"/>
<path d="M10.7109 6.91016V7.1152V7.32025H10.916H11.121V7.1152V6.91016H10.916H10.7109Z" fill="currentColor"/>
<path d="M10.3115 6.36719H9.90137V6.77728H10.3115V6.36719Z" fill="currentColor"/>
<path d="M10.7109 7.98535V8.1904V8.39544H10.916H11.121V8.1904V7.98535H10.916H10.7109Z" fill="currentColor"/>
<path d="M10.3115 7.44775H9.90137V7.85784H10.3115V7.44775Z" fill="currentColor"/>
<path d="M10.7109 9.06055V9.26559V9.47064H10.916H11.121V9.26559V9.06055H10.916H10.7109Z" fill="currentColor"/>
<path d="M10.3115 8.52295H9.90137V8.93304H10.3115V8.52295Z" fill="currentColor"/>
<path d="M10.7109 10.1411V10.3462V10.5512H10.916H11.121V10.3462V10.1411H10.916H10.7109Z" fill="currentColor"/>
<path d="M10.3115 9.60352H9.90137V10.0136H10.3115V9.60352Z" fill="currentColor"/>
<path d="M10.7109 11.2163V11.4214V11.6264H10.916H11.121V11.4214V11.2163H10.916H10.7109Z" fill="currentColor"/>
<path d="M10.3115 10.6782H9.90137V11.0883H10.3115V10.6782Z" fill="currentColor"/>
<path d="M10.7109 12.2969V12.5019V12.707H10.916H11.121V12.5019V12.2969H10.916H10.7109Z" fill="currentColor"/>
<path d="M10.3115 11.7534H9.90137V12.1635H10.3115V11.7534Z" fill="currentColor"/>
<path d="M10.7109 13.3716V13.5766V13.7817H10.916H11.121V13.5766V13.3716H10.916H10.7109Z" fill="currentColor"/>
<path d="M10.3115 12.835H9.90137V13.2451H10.3115V12.835Z" fill="currentColor"/>
<path d="M10.7109 14.4468V14.6518V14.8569H10.916H11.121V14.6518V14.4468H10.916H10.7109Z" fill="currentColor"/>
<path d="M10.3115 13.9097H9.90137V14.3198H10.3115V13.9097Z" fill="currentColor"/>
<path d="M10.7109 15.5283V15.7334V15.9384H10.916H11.121V15.7334V15.5283H10.916H10.7109Z" fill="currentColor"/>
<path d="M10.3115 14.9902H9.90137V15.4003H10.3115V14.9902Z" fill="currentColor"/>
<path d="M10.7109 16.603V16.8081V17.0131H10.916H11.121V16.8081V16.603H10.916H10.7109Z" fill="currentColor"/>
<path d="M10.3115 16.0649H9.90137V16.475H10.3115V16.0649Z" fill="currentColor"/>
<path d="M10.7109 17.6836V17.8886V18.0937H10.916H11.121V17.8886V17.6836H10.916H10.7109Z" fill="currentColor"/>
<path d="M10.3115 17.1396H9.90137V17.5497H10.3115V17.1396Z" fill="currentColor"/>
<path d="M10.7109 18.7583V18.9633V19.1684H10.916H11.121V18.9633V18.7583H10.916H10.7109Z" fill="currentColor"/>
<path d="M10.3115 18.2212H9.90137V18.6313H10.3115V18.2212Z" fill="currentColor"/>
<path d="M10.7109 19.8345V20.0395V20.2446H10.916H11.121V20.0395V19.8345H10.916H10.7109Z" fill="currentColor"/>
<path d="M10.3115 19.2964H9.90137V19.7065H10.3115V19.2964Z" fill="currentColor"/>
<path d="M10.7109 20.9146V21.1196V21.3246H10.916H11.121V21.1196V20.9146H10.916H10.7109Z" fill="currentColor"/>
<path d="M10.3115 20.3765H9.90137V20.7866H10.3115V20.3765Z" fill="currentColor"/>
<path d="M9.90137 21.7506C10.0399 21.7672 10.1729 21.7894 10.3115 21.8005V21.4458H9.90137V21.7451V21.7506Z" fill="currentColor"/>
<path d="M9.09814 1.69607V1.92882H9.50824V1.62402C9.44173 1.63511 9.36969 1.64065 9.30319 1.65727C9.23669 1.66836 9.16465 1.68498 9.09814 1.70161V1.69607Z" fill="currentColor"/>
<path d="M9.09814 2.59912V2.80417V3.00921H9.30319H9.50824V2.80417V2.59912H9.30319H9.09814Z" fill="currentColor"/>
<path d="M8.69867 2.06104H8.28857V2.47113H8.69867V2.06104Z" fill="currentColor"/>
<path d="M9.09814 3.67383V3.87887V4.08392H9.30319H9.50824V3.87887V3.67383H9.30319H9.09814Z" fill="currentColor"/>
<path d="M8.69867 3.13623H8.28857V3.54632H8.69867V3.13623Z" fill="currentColor"/>
<path d="M9.09814 4.75439V4.95944V5.16448H9.30319H9.50824V4.95944V4.75439H9.30319H9.09814Z" fill="currentColor"/>
<path d="M8.69867 4.2168H8.28857V4.62689H8.69867V4.2168Z" fill="currentColor"/>
<path d="M9.09814 5.83008V6.03512V6.24017H9.30319H9.50824V6.03512V5.83008H9.30319H9.09814Z" fill="currentColor"/>
<path d="M8.69867 5.29248H8.28857V5.70257H8.69867V5.29248Z" fill="currentColor"/>
<path d="M9.09814 6.91016V7.1152V7.32025H9.30319H9.50824V7.1152V6.91016H9.30319H9.09814Z" fill="currentColor"/>
<path d="M8.69867 6.36719H8.28857V6.77728H8.69867V6.36719Z" fill="currentColor"/>
<path d="M9.09814 7.98535V8.1904V8.39544H9.30319H9.50824V8.1904V7.98535H9.30319H9.09814Z" fill="currentColor"/>
<path d="M8.69867 7.44775H8.28857V7.85784H8.69867V7.44775Z" fill="currentColor"/>
<path d="M9.09814 9.06055V9.26559V9.47064H9.30319H9.50824V9.26559V9.06055H9.30319H9.09814Z" fill="currentColor"/>
<path d="M8.69867 8.52295H8.28857V8.93304H8.69867V8.52295Z" fill="currentColor"/>
<path d="M9.09814 10.1411V10.3462V10.5512H9.30319H9.50824V10.3462V10.1411H9.30319H9.09814Z" fill="currentColor"/>
<path d="M8.69867 9.60352H8.28857V10.0136H8.69867V9.60352Z" fill="currentColor"/>
<path d="M9.09814 11.2163V11.4214V11.6264H9.30319H9.50824V11.4214V11.2163H9.30319H9.09814Z" fill="currentColor"/>
<path d="M8.69867 10.6782H8.28857V11.0883H8.69867V10.6782Z" fill="currentColor"/>
<path d="M9.09814 12.2969V12.5019V12.707H9.30319H9.50824V12.5019V12.2969H9.30319H9.09814Z" fill="currentColor"/>
<path d="M8.69867 11.7534H8.28857V12.1635H8.69867V11.7534Z" fill="currentColor"/>
<path d="M9.09814 13.3716V13.5766V13.7817H9.30319H9.50824V13.5766V13.3716H9.30319H9.09814Z" fill="currentColor"/>
<path d="M8.69867 12.835H8.28857V13.2451H8.69867V12.835Z" fill="currentColor"/>
<path d="M9.09814 14.4468V14.6518V14.8569H9.30319H9.50824V14.6518V14.4468H9.30319H9.09814Z" fill="currentColor"/>
<path d="M8.69867 13.9097H8.28857V14.3198H8.69867V13.9097Z" fill="currentColor"/>
<path d="M9.09814 15.5283V15.7334V15.9384H9.30319H9.50824V15.7334V15.5283H9.30319H9.09814Z" fill="currentColor"/>
<path d="M8.69867 14.9902H8.28857V15.4003H8.69867V14.9902Z" fill="currentColor"/>
<path d="M9.09814 16.603V16.8081V17.0131H9.30319H9.50824V16.8081V16.603H9.30319H9.09814Z" fill="currentColor"/>
<path d="M8.69867 16.0649H8.28857V16.475H8.69867V16.0649Z" fill="currentColor"/>
<path d="M9.09814 17.6836V17.8886V18.0937H9.30319H9.50824V17.8886V17.6836H9.30319H9.09814Z" fill="currentColor"/>
<path d="M8.69867 17.1396H8.28857V17.5497H8.69867V17.1396Z" fill="currentColor"/>
<path d="M9.09814 18.7583V18.9633V19.1684H9.30319H9.50824V18.9633V18.7583H9.30319H9.09814Z" fill="currentColor"/>
<path d="M8.69867 18.2212H8.28857V18.6313H8.69867V18.2212Z" fill="currentColor"/>
<path d="M9.09814 19.8345V20.0395V20.2446H9.30319H9.50824V20.0395V19.8345H9.30319H9.09814Z" fill="currentColor"/>
<path d="M8.69867 19.2964H8.28857V19.7065H8.69867V19.2964Z" fill="currentColor"/>
<path d="M9.09814 20.9146V21.1196V21.3246H9.30319H9.50824V21.1196V20.9146H9.30319H9.09814Z" fill="currentColor"/>
<path d="M8.69867 20.3765H8.28857V20.7866H8.69867V20.3765Z" fill="currentColor"/>
<path d="M8.69892 21.5126V21.4517H8.45508C8.5382 21.4738 8.62133 21.496 8.69892 21.5126Z" fill="currentColor"/>
<path d="M7.47998 2.59912V2.80417V3.00921H7.68503H7.89007V2.80417V2.59912H7.68503H7.47998Z" fill="currentColor"/>
<path d="M7.08153 2.4715V2.36621C7.00949 2.39946 6.93191 2.43825 6.85986 2.4715H7.08153Z" fill="currentColor"/>
<path d="M7.47998 3.67383V3.87887V4.08392H7.68503H7.89007V3.87887V3.67383H7.68503H7.47998Z" fill="currentColor"/>
<path d="M7.0805 3.13623H6.67041V3.54632H7.0805V3.13623Z" fill="currentColor"/>
<path d="M6.06733 2.89243C6.00083 2.93122 5.93987 2.97001 5.87891 3.0088H6.27237V2.77051C6.27237 2.77051 6.23358 2.79268 6.21695 2.80376C6.16708 2.83147 6.1172 2.86472 6.06733 2.89243Z" fill="currentColor"/>
<path d="M7.47998 4.75439V4.95944V5.16448H7.68503H7.89007V4.95944V4.75439H7.68503H7.47998Z" fill="currentColor"/>
<path d="M7.0805 4.2168H6.67041V4.62689H7.0805V4.2168Z" fill="currentColor"/>
<path d="M7.47998 5.83008V6.03512V6.24017H7.68503H7.89007V6.03512V5.83008H7.68503H7.47998Z" fill="currentColor"/>
<path d="M7.0805 5.29248H6.67041V5.70257H7.0805V5.29248Z" fill="currentColor"/>
<path d="M7.47998 6.91016V7.1152V7.32025H7.68503H7.89007V7.1152V6.91016H7.68503H7.47998Z" fill="currentColor"/>
<path d="M7.0805 6.36719H6.67041V6.77728H7.0805V6.36719Z" fill="currentColor"/>
<path d="M7.47998 7.98535V8.1904V8.39544H7.68503H7.89007V8.1904V7.98535H7.68503H7.47998Z" fill="currentColor"/>
<path d="M7.0805 7.44775H6.67041V7.85784H7.0805V7.44775Z" fill="currentColor"/>
<path d="M7.47998 9.06055V9.26559V9.47064H7.68503H7.89007V9.26559V9.06055H7.68503H7.47998Z" fill="currentColor"/>
<path d="M7.0805 8.52295H6.67041V8.93304H7.0805V8.52295Z" fill="currentColor"/>
<path d="M7.47998 10.1411V10.3462V10.5512H7.68503H7.89007V10.3462V10.1411H7.68503H7.47998Z" fill="currentColor"/>
<path d="M7.0805 9.60352H6.67041V10.0136H7.0805V9.60352Z" fill="currentColor"/>
<path d="M7.47998 11.2163V11.4214V11.6264H7.68503H7.89007V11.4214V11.2163H7.68503H7.47998Z" fill="currentColor"/>
<path d="M7.0805 10.6782H6.67041V11.0883H7.0805V10.6782Z" fill="currentColor"/>
<path d="M7.47998 12.2969V12.5019V12.707H7.68503H7.89007V12.5019V12.2969H7.68503H7.47998Z" fill="currentColor"/>
<path d="M7.0805 11.7534H6.67041V12.1635H7.0805V11.7534Z" fill="currentColor"/>
<path d="M7.47998 13.3716V13.5766V13.7817H7.68503H7.89007V13.5766V13.3716H7.68503H7.47998Z" fill="currentColor"/>
<path d="M7.0805 12.835H6.67041V13.2451H7.0805V12.835Z" fill="currentColor"/>
<path d="M7.47998 14.4468V14.6518V14.8569H7.68503H7.89007V14.6518V14.4468H7.68503H7.47998Z" fill="currentColor"/>
<path d="M7.0805 13.9097H6.67041V14.3198H7.0805V13.9097Z" fill="currentColor"/>
<path d="M7.47998 15.5283V15.7334V15.9384H7.68503H7.89007V15.7334V15.5283H7.68503H7.47998Z" fill="currentColor"/>
<path d="M7.0805 14.9902H6.67041V15.4003H7.0805V14.9902Z" fill="currentColor"/>
<path d="M7.47998 16.603V16.8081V17.0131H7.68503H7.89007V16.8081V16.603H7.68503H7.47998Z" fill="currentColor"/>
<path d="M7.0805 16.0649H6.67041V16.475H7.0805V16.0649Z" fill="currentColor"/>
<path d="M7.47998 17.6836V17.8886V18.0937H7.68503H7.89007V17.8886V17.6836H7.68503H7.47998Z" fill="currentColor"/>
<path d="M7.0805 17.1396H6.67041V17.5497H7.0805V17.1396Z" fill="currentColor"/>
<path d="M7.47998 18.7583V18.9633V19.1684H7.68503H7.89007V18.9633V18.7583H7.68503H7.47998Z" fill="currentColor"/>
<path d="M7.0805 18.2212H6.67041V18.6313H7.0805V18.2212Z" fill="currentColor"/>
<path d="M7.47998 19.8345V20.0395V20.2446H7.68503H7.89007V20.0395V19.8345H7.68503H7.47998Z" fill="currentColor"/>
<path d="M7.0805 19.2964H6.67041V19.7065H7.0805V19.2964Z" fill="currentColor"/>
<path d="M7.47998 20.9146V21.1196C7.54648 21.1473 7.61852 21.1695 7.68503 21.1972C7.75153 21.2249 7.82357 21.2471 7.89007 21.2748V20.9146H7.47998V20.9146Z" fill="currentColor"/>
<path d="M6.67041 20.7533C6.67041 20.7533 6.71474 20.7755 6.73691 20.7866H7.0805V20.3765H6.67041V20.7533V20.7533Z" fill="currentColor"/>
<path d="M5.86133 3.67383V3.87887V4.08392H6.06637H6.27696V3.87887V3.67383H6.06637H5.86133Z" fill="currentColor"/>
<path d="M5.46878 3.54711V3.27002C5.34132 3.35869 5.22495 3.4529 5.10303 3.54711H5.46878Z" fill="currentColor"/>
<path d="M5.86133 4.75439V4.95944V5.16448H6.06637H6.27696V4.95944V4.75439H6.06637H5.86133Z" fill="currentColor"/>
<path d="M5.46868 4.2168H5.05859V4.62689H5.46868V4.2168Z" fill="currentColor"/>
<path d="M5.86133 5.83008V6.03512V6.24017H6.06637H6.27696V6.03512V5.83008H6.06637H5.86133Z" fill="currentColor"/>
<path d="M5.46868 5.29248H5.05859V5.70257H5.46868V5.29248Z" fill="currentColor"/>
<path d="M5.86133 6.91016V7.1152V7.32025H6.06637H6.27696V7.1152V6.91016H6.06637H5.86133Z" fill="currentColor"/>
<path d="M5.46868 6.36719H5.05859V6.77728H5.46868V6.36719Z" fill="currentColor"/>
<path d="M5.86133 7.98535V8.1904V8.39544H6.06637H6.27696V8.1904V7.98535H6.06637H5.86133Z" fill="currentColor"/>
<path d="M5.46868 7.44775H5.05859V7.85784H5.46868V7.44775Z" fill="currentColor"/>
<path d="M5.86133 9.06055V9.26559V9.47064H6.06637H6.27696V9.26559V9.06055H6.06637H5.86133Z" fill="currentColor"/>
<path d="M5.46868 8.52295H5.05859V8.93304H5.46868V8.52295Z" fill="currentColor"/>
<path d="M5.86133 10.1411V10.3462V10.5512H6.06637H6.27696V10.3462V10.1411H6.06637H5.86133Z" fill="currentColor"/>
<path d="M5.46868 9.60352H5.05859V10.0136H5.46868V9.60352Z" fill="currentColor"/>
<path d="M5.86133 11.2163V11.4214V11.6264H6.06637H6.27696V11.4214V11.2163H6.06637H5.86133Z" fill="currentColor"/>
<path d="M5.46868 10.6782H5.05859V11.0883H5.46868V10.6782Z" fill="currentColor"/>
<path d="M5.86133 12.2969V12.5019V12.707H6.06637H6.27696V12.5019V12.2969H6.06637H5.86133Z" fill="currentColor"/>
<path d="M5.46868 11.7534H5.05859V12.1635H5.46868V11.7534Z" fill="currentColor"/>
<path d="M5.86133 13.3716V13.5766V13.7817H6.06637H6.27696V13.5766V13.3716H6.06637H5.86133Z" fill="currentColor"/>
<path d="M5.46868 12.835H5.05859V13.2451H5.46868V12.835Z" fill="currentColor"/>
<path d="M5.86133 14.4468V14.6518V14.8569H6.06637H6.27696V14.6518V14.4468H6.06637H5.86133Z" fill="currentColor"/>
<path d="M5.46868 13.9097H5.05859V14.3198H5.46868V13.9097Z" fill="currentColor"/>
<path d="M5.86133 15.5283V15.7334V15.9384H6.06637H6.27696V15.7334V15.5283H6.06637H5.86133Z" fill="currentColor"/>
<path d="M5.46868 14.9902H5.05859V15.4003H5.46868V14.9902Z" fill="currentColor"/>
<path d="M5.86133 16.603V16.8081V17.0131H6.06637H6.27696V16.8081V16.603H6.06637H5.86133Z" fill="currentColor"/>
<path d="M5.46868 16.0649H5.05859V16.475H5.46868V16.0649Z" fill="currentColor"/>
<path d="M5.86133 17.6836V17.8886V18.0937H6.06637H6.27696V17.8886V17.6836H6.06637H5.86133Z" fill="currentColor"/>
<path d="M5.46868 17.1396H5.05859V17.5497H5.46868V17.1396Z" fill="currentColor"/>
<path d="M5.86133 18.7583V18.9633V19.1684H6.06637H6.27696V18.9633V18.7583H6.06637H5.86133Z" fill="currentColor"/>
<path d="M5.46868 18.2212H5.05859V18.6313H5.46868V18.2212Z" fill="currentColor"/>
<path d="M5.86133 19.8345V20.0395V20.2446H6.06637H6.27696V20.0395V19.8345H6.06637H5.86133Z" fill="currentColor"/>
<path d="M5.46868 19.2964H5.05859V19.7065H5.46868V19.2964Z" fill="currentColor"/>
<path d="M4.24951 4.75439V4.95944V5.16448H4.45456H4.6596V4.95944V4.75439H4.45456H4.24951Z" fill="currentColor"/>
<path d="M4.44873 4.08361H4.65932V3.88965C4.58728 3.95061 4.52077 4.01157 4.45427 4.07807C4.45427 4.07807 4.45427 4.07807 4.44873 4.07807V4.08361Z" fill="currentColor"/>
<path d="M4.24951 5.83008V6.03512V6.24017H4.45456H4.6596V6.03512V5.83008H4.45456H4.24951Z" fill="currentColor"/>
<path d="M2.83639 5.9132C2.80868 5.952 2.78097 5.99633 2.75327 6.03512C2.70893 6.10163 2.67014 6.17367 2.63135 6.24017H2.83639H3.04144V5.83008H2.89735C2.87519 5.85779 2.85302 5.8855 2.83639 5.9132V5.9132Z" fill="currentColor"/>
<path d="M3.85003 5.29248H3.43994V5.70257H3.85003V5.29248Z" fill="currentColor"/>
<path d="M4.24951 6.91016V7.1152V7.32025H4.45456H4.6596V7.1152V6.91016H4.45456H4.24951Z" fill="currentColor"/>
<path d="M3.85003 6.36719H3.43994V6.77728H3.85003V6.36719Z" fill="currentColor"/>
<path d="M4.24951 7.98535V8.1904V8.39544H4.45456H4.6596V8.1904V7.98535H4.45456H4.24951Z" fill="currentColor"/>
<path d="M3.85003 7.44775H3.43994V7.85784H3.85003V7.44775Z" fill="currentColor"/>
<path d="M4.24951 9.06055V9.26559V9.47064H4.45456H4.6596V9.26559V9.06055H4.45456H4.24951Z" fill="currentColor"/>
<path d="M3.85003 8.52295H3.43994V8.93304H3.85003V8.52295Z" fill="currentColor"/>
<path d="M4.24951 10.1411V10.3462V10.5512H4.45456H4.6596V10.3462V10.1411H4.45456H4.24951Z" fill="currentColor"/>
<path d="M3.85003 9.60352H3.43994V10.0136H3.85003V9.60352Z" fill="currentColor"/>
<path d="M4.24951 11.2163V11.4214V11.6264H4.45456H4.6596V11.4214V11.2163H4.45456H4.24951Z" fill="currentColor"/>
<path d="M3.85003 10.6782H3.43994V11.0883H3.85003V10.6782Z" fill="currentColor"/>
<path d="M4.24951 12.2969V12.5019V12.707H4.45456H4.6596V12.5019V12.2969H4.45456H4.24951Z" fill="currentColor"/>
<path d="M3.85003 11.7534H3.43994V12.1635H3.85003V11.7534Z" fill="currentColor"/>
<path d="M4.24951 13.3716V13.5766V13.7817H4.45456H4.6596V13.5766V13.3716H4.45456H4.24951Z" fill="currentColor"/>
<path d="M3.85003 12.835H3.43994V13.2451H3.85003V12.835Z" fill="currentColor"/>
<path d="M4.24951 14.4468V14.6518V14.8569H4.45456H4.6596V14.6518V14.4468H4.45456H4.24951Z" fill="currentColor"/>
<path d="M3.85003 13.9097H3.43994V14.3198H3.85003V13.9097Z" fill="currentColor"/>
<path d="M4.24951 15.5283V15.7334V15.9384H4.45456H4.6596V15.7334V15.5283H4.45456H4.24951Z" fill="currentColor"/>
<path d="M3.85003 14.9902H3.43994V15.4003H3.85003V14.9902Z" fill="currentColor"/>
<path d="M4.24951 16.603V16.8081V17.0131H4.45456H4.6596V16.8081V16.603H4.45456H4.24951Z" fill="currentColor"/>
<path d="M3.85003 16.0649H3.43994V16.475H3.85003V16.0649Z" fill="currentColor"/>
<path d="M4.24951 17.6836V17.8886V18.0937H4.45456H4.6596V17.8886V17.6836H4.45456H4.24951Z" fill="currentColor"/>
<path d="M3.85003 17.1396H3.43994V17.5497H3.85003V17.1396Z" fill="currentColor"/>
<path d="M4.24951 18.7583V19.0465C4.29385 19.0853 4.33818 19.1296 4.38251 19.1684H4.6596V18.7583H4.24951Z" fill="currentColor"/>
<path d="M3.8337 18.6313H3.85033V18.2212H3.4624C3.58432 18.3653 3.70624 18.4983 3.8337 18.6313V18.6313Z" fill="currentColor"/>
<path d="M2.63135 6.91016V7.1152V7.32025H2.83639H3.04144V7.1152V6.91016H2.83639H2.63135Z" fill="currentColor"/>
<path d="M2.63135 7.98535V8.1904V8.39544H2.83639H3.04144V8.1904V7.98535H2.83639H2.63135Z" fill="currentColor"/>
<path d="M1.82178 7.79688V7.85784H2.23187V7.44775H1.97695C1.92153 7.56413 1.87165 7.68051 1.82178 7.79688V7.79688Z" fill="currentColor"/>
<path d="M2.63135 9.06055V9.26559V9.47064H2.83639H3.04144V9.26559V9.06055H2.83639H2.63135Z" fill="currentColor"/>
<path d="M1.3562 9.26559C1.33957 9.33209 1.31741 9.40414 1.30078 9.47064H1.4227V9.06055H1.40608C1.38945 9.12705 1.36728 9.19909 1.35066 9.26559H1.3562Z" fill="currentColor"/>
<path d="M2.23187 8.52295H1.82178V8.93304H2.23187V8.52295Z" fill="currentColor"/>
<path d="M2.63135 10.1411V10.3462V10.5512H2.83639H3.04144V10.3462V10.1411H2.83639H2.63135Z" fill="currentColor"/>
<path d="M2.23187 9.60352H1.82178V10.0136H2.23187V9.60352Z" fill="currentColor"/>
<path d="M2.63135 11.2163V11.4214V11.6264H2.83639H3.04144V11.4214V11.2163H2.83639H2.63135Z" fill="currentColor"/>
<path d="M2.23187 10.6782H1.82178V11.0883H2.23187V10.6782Z" fill="currentColor"/>
<path d="M2.63135 12.2969V12.5019V12.707H2.83639H3.04144V12.5019V12.2969H2.83639H2.63135Z" fill="currentColor"/>
<path d="M2.23187 11.7534H1.82178V12.1635H2.23187V11.7534Z" fill="currentColor"/>
<path d="M2.63135 13.3716V13.5766V13.7817H2.83639H3.04144V13.5766V13.3716H2.83639H2.63135Z" fill="currentColor"/>
<path d="M2.23187 12.835H1.82178V13.2451H2.23187V12.835Z" fill="currentColor"/>
<path d="M2.63135 14.4468V14.6518V14.8569H2.83639H3.04144V14.6518V14.4468H2.83639H2.63135Z" fill="currentColor"/>
<path d="M2.23187 13.9097H1.82178V14.3198H2.23187V13.9097Z" fill="currentColor"/>
<path d="M2.63135 15.5283V15.7334V15.9384H2.83639H3.04144V15.7334V15.5283H2.83639H2.63135Z" fill="currentColor"/>
<path d="M2.23187 14.9902H1.82178V15.4003H2.23187V14.9902Z" fill="currentColor"/>
<path d="M2.63135 16.603V16.8081V17.0131H2.83639H3.04144V16.8081V16.603H2.83639H2.63135Z" fill="currentColor"/>
<path d="M2.23737 16.3921V16.0596H2.07666C2.13208 16.1704 2.17641 16.2812 2.23737 16.3921Z" fill="currentColor"/>
<path d="M1.19004 10.1411C1.17895 10.2076 1.16787 10.2797 1.15679 10.3462C1.1457 10.4127 1.13462 10.4847 1.12354 10.5512H1.42279V10.1411H1.18449H1.19004Z" fill="currentColor"/>
<path d="M1.08467 11.2163C1.08467 11.2828 1.07358 11.3549 1.07358 11.4214C1.07358 11.4879 1.0625 11.5599 1.0625 11.6264H1.42271V11.2163H1.07912H1.08467Z" fill="currentColor"/>
<path d="M1.0957 12.2969C1.0957 12.3634 1.0957 12.4354 1.10679 12.5019C1.11233 12.5684 1.10679 12.6405 1.11787 12.707H1.42821V12.2969H1.0957V12.2969Z" fill="currentColor"/>
<path d="M1.21746 13.3716C1.21746 13.3716 1.21746 13.3882 1.21746 13.3937C1.22854 13.4547 1.23408 13.5157 1.24517 13.5766C1.25625 13.6431 1.26733 13.7152 1.28396 13.7817H1.4225V13.3716H1.21191H1.21746Z" fill="currentColor"/>
<path d="M16.6903 4.06121C17.444 5.39677 17.8762 6.93738 17.8762 8.57774C17.8762 13.6485 13.7642 17.7604 8.69352 17.7604C6.84257 17.7604 5.12462 17.2118 3.67822 16.2697C5.25763 19.0572 8.24464 20.9359 11.675 20.9359C16.7457 20.9359 20.8577 16.8239 20.8577 11.7532C20.8577 8.53341 19.1952 5.69603 16.6847 4.05566L16.6903 4.06121Z" fill="black"/>
<path d="M10.7384 5.23674C10.7384 5.03724 10.7384 4.84327 10.7384 4.64377C10.7384 4.61052 10.7384 4.57173 10.7494 4.53848C10.8049 4.36668 10.8104 4.19489 10.7938 4.01201C10.7882 3.9178 10.7993 3.82359 10.8049 3.73492C10.8049 3.69059 10.816 3.64071 10.8049 3.59638C10.7716 3.347 10.8049 3.09762 10.827 2.85378C10.8381 2.74295 10.827 2.62657 10.8437 2.51019C10.8547 2.36611 10.888 2.22202 10.8935 2.07793C10.8991 1.77314 10.8935 1.46834 10.8935 1.158C10.8935 1.11921 10.8825 1.07488 10.8935 1.03608C10.9379 0.880913 10.9379 0.731286 10.9046 0.576116C10.8991 0.548408 10.8991 0.515157 10.9046 0.481906C10.9212 0.287945 10.9434 0.354446 10.96 0.160484C10.96 0.11615 10.9711 0.0662745 10.9711 0.0219403C10.9434 -0.249606 10.9767 -0.122146 10.9933 -0.388151C11.0044 -0.510069 10.9933 -0.63753 10.9933 -0.759449C10.9933 -0.781616 10.9933 -0.803783 10.9933 -0.820408C11.0709 -1.30254 11.0265 -1.51867 11.0432 -2.0008C11.0432 -2.1061 11.0653 -2.20585 11.0764 -2.31114C11.0764 -2.35548 11.0875 -2.40535 11.0875 -2.44969C11.082 -2.63811 11.0875 -2.82098 11.1152 -3.0094C11.1429 -3.23107 11.1263 -3.45275 11.1263 -3.67442C11.1263 -3.72983 11.1207 -3.79079 11.1263 -3.84621C11.1318 -3.89054 11.1485 -3.94042 11.1762 -3.97367C11.2039 -4.00138 11.2593 -4.02909 11.2925 -4.01801C11.3258 -4.00692 11.3535 -3.95705 11.3701 -3.91825C11.3812 -3.89055 11.3701 -3.85729 11.3701 -3.82404C11.3812 -3.66887 11.4034 -3.5137 11.4089 -3.35854C11.42 -3.20891 11.4089 -3.05928 11.42 -2.90965C11.4366 -2.53281 11.4643 -2.15597 11.481 -1.77913C11.481 -1.72926 11.4754 -1.67384 11.4754 -1.62396C11.4754 -1.54638 11.4754 -1.46879 11.4754 -1.39121C11.4754 -1.29146 11.481 -1.45771 11.4865 -1.3635C11.4865 -1.31362 11.4865 -1.25821 11.4865 -1.20833C11.4865 -1.14737 11.5031 -1.08087 11.492 -1.01991C11.4588 -0.809324 11.481 -0.604279 11.5142 -0.399234C11.5142 -0.377067 11.5253 -0.3549 11.5142 -0.338275C11.4754 -0.116604 11.5253 -0.299482 11.5475 -0.0833535C11.5696 0.11615 11.5475 0.0551906 11.553 0.260236C11.553 0.465281 11.5585 0.664784 11.5696 0.864288C11.5807 1.06379 11.5918 1.26884 11.6029 1.46834C11.614 1.63459 11.6361 1.80085 11.6417 1.96156C11.6528 2.16106 11.6417 2.35502 11.6583 2.55453C11.6694 2.7097 11.7193 2.85932 11.6417 3.00895C11.6306 3.02558 11.6361 3.04774 11.6417 3.06991C11.6638 3.39133 11.6915 3.70721 11.7137 4.02863C11.7193 4.12284 11.7137 4.2226 11.7082 4.32235C11.7082 4.38885 11.6971 4.45535 11.7026 4.52185C11.7137 4.66594 11.7303 4.81002 11.7414 4.95411C11.7414 5.03724 11.7414 5.12036 11.7414 5.20349C11.7414 5.25336 11.7414 5.30878 11.7414 5.35866C11.7525 5.52491 11.7636 5.69116 11.7747 5.85188C11.7802 5.95163 11.7858 6.05138 11.8079 6.14559C11.8911 6.49472 11.8855 6.86048 12.0296 7.19298C12.1848 7.55874 12.3067 7.94112 12.5117 8.29025C12.6614 8.54517 12.8553 8.77238 13.0105 9.01622C13.1712 9.2656 13.3818 9.4651 13.5868 9.66461C13.7753 9.84749 13.9526 10.0414 14.1964 10.1689C14.4347 10.2964 14.6453 10.4626 14.8836 10.5956C15.0997 10.7175 15.3269 10.8118 15.5708 10.8783C15.737 10.9226 15.8922 10.9835 16.0585 11.0334C16.4907 11.1609 16.923 11.244 17.3719 11.2606C17.4051 11.2606 17.4328 11.2606 17.4661 11.2606C17.6877 11.2606 17.9094 11.2717 18.1311 11.2773C18.3915 11.2828 18.6465 11.3105 18.9069 11.3105C19.1508 11.3105 19.3891 11.3216 19.6329 11.2994C19.7216 11.2939 19.8158 11.3271 19.91 11.3327C20.1317 11.3493 20.3533 11.3659 20.575 11.377C20.6193 11.377 20.6692 11.3659 20.7135 11.3715C21.2899 11.3992 21.8662 11.4324 22.437 11.4657C22.6254 11.4768 22.8194 11.5045 23.0078 11.5156C23.1796 11.5266 23.3459 11.5156 23.5177 11.5266C23.6396 11.5266 23.7671 11.5377 23.889 11.5433C23.9001 11.5433 23.9111 11.5433 23.9222 11.5433C24.2991 11.4712 24.6648 11.5599 25.0361 11.5876C25.2301 11.6042 25.4296 11.6042 25.6291 11.6153C25.7288 11.6153 25.823 11.6319 25.9228 11.6375C25.9838 11.6375 26.0447 11.6375 26.1112 11.6319C26.1556 11.6319 26.2054 11.6153 26.2498 11.6208C26.3329 11.6208 26.4049 11.6929 26.416 11.7649C26.4216 11.8314 26.3772 11.8979 26.2886 11.9201C26.1334 11.9644 25.9727 11.9644 25.812 11.9644C25.5958 11.9644 25.3742 11.9755 25.158 11.9866C25.0527 11.9866 24.953 11.9921 24.8477 11.9977C24.759 11.9977 24.6704 12.0088 24.5817 12.0088C24.4709 12.0088 24.3656 12.0088 24.2547 12.0088C24.1993 12.0088 24.1384 11.9977 24.0829 12.0088C23.7671 12.0864 23.4512 12.0697 23.1297 12.0309C23.0411 12.0199 22.9413 12.042 22.8582 12.0642C22.7252 12.103 22.5977 12.1252 22.4592 12.0919C22.437 12.0864 22.4093 12.0808 22.3816 12.0808C22.0436 12.0919 21.7111 12.1085 21.373 12.1141C20.8909 12.1196 20.4143 12.2249 19.9322 12.2027C19.6274 12.1917 19.3226 12.1917 19.0178 12.2249C18.713 12.2582 18.4082 12.2471 18.1034 12.2582C18.0202 12.2582 17.9371 12.2748 17.854 12.2803C17.8152 12.2803 17.7819 12.2969 17.7432 12.2859C17.4439 12.2249 17.1446 12.3302 16.8454 12.308C16.5517 12.4133 16.2303 12.3856 15.9365 12.5186C15.7703 12.5962 15.5819 12.635 15.4101 12.7015C15.2383 12.7735 15.0776 12.8733 14.9058 12.9342C14.7063 13.0063 14.5511 13.1448 14.3738 13.2446C14.1244 13.3887 13.9193 13.5882 13.6921 13.76C13.6589 13.7877 13.6367 13.832 13.609 13.8708C13.5813 13.9096 13.5536 13.9484 13.5203 13.9761C13.415 14.0703 13.3042 14.1645 13.1934 14.2587C13.1657 14.2809 13.1379 14.3086 13.1158 14.3363C12.9329 14.5802 12.7389 14.8184 12.5782 15.0789C12.4286 15.3283 12.3122 15.5943 12.1958 15.8603C12.0573 16.1651 11.952 16.481 11.8911 16.8079C11.8356 17.0961 11.7968 17.3898 11.7691 17.6835C11.7414 17.944 11.7359 18.21 11.7303 18.476C11.7303 18.67 11.7525 18.8695 11.7636 19.0634C11.7636 19.1189 11.7636 19.1798 11.747 19.2297C11.7026 19.3959 11.6915 19.5677 11.7137 19.7395C11.7137 19.7728 11.7248 19.8116 11.7193 19.8504C11.6971 20.2605 11.6638 20.665 11.6472 21.0751C11.6417 21.258 11.6528 21.4464 11.6583 21.6293C11.6583 21.6514 11.6694 21.6736 11.6638 21.6902C11.6084 21.9064 11.6472 22.1225 11.6361 22.3386C11.6361 22.4273 11.6361 22.516 11.6306 22.6046C11.6306 22.7099 11.614 22.8097 11.6084 22.915C11.6084 22.9593 11.5918 23.0092 11.6084 23.0535C11.6472 23.1921 11.6417 23.3306 11.6306 23.4691C11.6195 23.7296 11.6195 23.9845 11.6084 24.245C11.5918 24.5886 11.5641 24.9266 11.5585 25.2702C11.553 25.5362 11.5641 25.8022 11.5696 26.0627C11.5696 26.0959 11.5807 26.1292 11.5696 26.1569C11.5031 26.3786 11.553 26.6002 11.553 26.8219C11.553 26.8441 11.553 26.8662 11.553 26.8829C11.4865 27.1655 11.553 30.086 11.5475 30.3686C11.5475 30.4241 11.5364 30.4795 11.5308 30.5404C11.5253 30.6513 11.5142 30.7676 11.5142 30.8785C11.5142 30.9782 11.5142 31.0724 11.5087 31.1722C11.5087 31.2387 11.5087 31.3052 11.5087 31.3717C11.5087 31.4216 11.5087 31.477 11.5087 31.5269C11.5087 31.5657 11.492 31.61 11.4976 31.6488C11.5308 31.804 11.492 31.9591 11.4865 32.1143C11.4754 32.3858 11.4865 32.6518 11.4754 32.9234C11.4643 33.2725 11.4754 33.6272 11.4422 33.9763C11.4145 34.2534 11.4422 34.536 11.4533 34.8131C11.4533 34.8575 11.4699 34.9129 11.4533 34.9517C11.3757 35.1789 11.42 35.4172 11.4034 35.6499C11.3868 35.9437 11.4089 36.2429 11.4145 36.5366C11.4145 36.7527 11.4533 36.98 11.3701 37.1961C11.3369 37.2792 11.359 37.379 11.3535 37.4732C11.3535 37.5286 11.3535 37.5896 11.3258 37.6394C11.287 37.7226 11.1983 37.717 11.1595 37.6394C11.1374 37.6006 11.1318 37.5508 11.1263 37.5064C11.1152 37.2903 11.1041 37.0742 11.093 36.8525C11.093 36.7583 11.0875 36.6641 11.093 36.5754C11.1152 36.3316 11.0709 36.0877 11.0709 35.8439C11.0709 35.5391 11.0542 35.2288 11.0653 34.9295C11.0764 34.6912 11.0487 34.4529 11.0487 34.2202C11.0487 33.9486 11.0376 33.6826 11.0321 33.4111C11.0321 33.3058 11.0099 33.206 11.0044 33.1007C11.0044 33.0619 10.9933 33.0287 10.9933 32.9899C11.0265 32.7461 10.9933 32.5022 10.9822 32.2584C10.9711 32.0201 10.9933 31.7818 10.9988 31.5435C10.9988 31.4049 11.0099 31.2609 10.9434 31.1334C10.9268 31.1057 10.9212 31.0558 10.9323 31.0281C10.9877 30.8785 10.9656 30.7288 10.9656 30.5792C10.9545 30.219 10.9434 27.2209 10.9379 26.8552C10.9379 26.6446 10.9379 26.434 10.9379 26.2234C10.9379 26.1846 10.9379 26.1403 10.9268 26.1015C10.9268 26.0682 10.9046 26.0294 10.9102 25.9962C10.96 25.7357 10.8935 25.4808 10.9102 25.2203C10.9212 25.0042 10.8825 24.7881 10.8769 24.572C10.8769 24.4389 10.888 24.3004 10.8825 24.1674C10.8825 24.0399 10.8658 23.9069 10.8603 23.7795C10.8603 23.7185 10.8492 23.652 10.8603 23.5911C10.8935 23.3306 10.8603 23.0757 10.8326 22.8152C10.8159 22.6656 10.8326 22.516 10.8326 22.3663C10.8326 22.3054 10.8492 22.2444 10.8492 22.1835C10.8381 21.8066 10.8326 21.4242 10.816 21.0474C10.8049 20.726 10.7827 20.4045 10.7661 20.0831C10.7661 20.0499 10.7661 20.0111 10.7716 19.9778C10.7772 19.9058 10.7938 19.8337 10.7882 19.7617C10.7827 19.4735 10.7716 19.1854 10.7605 18.8972C10.7494 18.6146 10.7217 18.3264 10.7328 18.0438C10.7439 17.7944 10.7217 17.5505 10.6719 17.3067C10.6386 17.1294 10.6331 16.9465 10.5887 16.7691C10.5444 16.5807 10.4779 16.4034 10.4169 16.2205C10.4003 16.1596 10.3671 16.1041 10.3615 16.0432C10.3449 15.9102 10.2895 15.7993 10.223 15.683C10.1509 15.55 10.0734 15.4225 10.0235 15.2784C9.95698 15.0955 9.81289 14.9681 9.7076 14.8184C9.56905 14.6189 9.41943 14.425 9.26426 14.2366C9.14234 14.098 8.99825 13.9761 8.86525 13.8431C8.82646 13.8043 8.77104 13.7711 8.73779 13.7267C8.57154 13.5106 8.33878 13.3831 8.11711 13.2446C7.91761 13.1227 7.72919 12.9897 7.52414 12.8733C7.39114 12.8012 7.24151 12.7514 7.09743 12.6904C6.96997 12.6405 6.83696 12.5907 6.7095 12.5408C6.69288 12.5352 6.67071 12.5186 6.65409 12.5131C6.41579 12.4577 6.18304 12.3856 5.94474 12.3524C5.67874 12.3136 5.40719 12.2969 5.14118 12.2803C4.98601 12.2692 4.83085 12.2803 4.67568 12.2803C4.42075 12.2692 4.17138 12.2471 3.91645 12.2304C3.82224 12.2304 3.72803 12.2304 3.63937 12.2304C3.52299 12.2304 3.40107 12.2194 3.28469 12.2083C3.2459 12.2083 3.21265 12.2027 3.17386 12.1972C2.83581 12.1806 3.15723 12.1695 2.82473 12.1529C2.78593 12.1529 2.7416 12.1473 2.70281 12.1529C2.5033 12.1806 2.30934 12.1418 2.11538 12.1141C1.9325 12.0919 1.74408 12.0919 1.55566 12.1141C1.39495 12.1251 1.23978 12.1307 1.07353 12.1141C0.862942 12.0919 1.04582 12.0974 0.835234 12.0919C0.807525 12.0919 0.785358 12.0919 0.757649 12.0919C0.486102 12.0697 0.741024 12.0365 0.463936 12.0199C0.258891 12.0088 0.0538449 12.0088 -0.156742 12.0088C-0.40058 12.0088 -0.644417 12.0088 -0.882713 11.9644C-0.971381 11.9478 -1.07113 11.9534 -1.1598 11.9534C-1.33714 11.9478 -1.51447 11.9367 -1.68627 11.9312C-1.77494 11.9312 -1.86361 11.9312 -1.95227 11.9312C-2.02986 11.9312 -2.10744 11.9423 -2.18503 11.9312C-2.24599 11.9256 -2.30695 11.8924 -2.31803 11.8204C-2.32911 11.7539 -2.30695 11.6929 -2.25153 11.6596C-2.20165 11.6319 -2.13515 11.6098 -2.07973 11.6042C-1.86915 11.5876 -1.65856 11.5599 -1.44243 11.571C-1.19305 11.5821 -0.943672 11.5488 -0.699835 11.5322C-0.661042 11.5322 -0.616709 11.5211 -0.577916 11.5322C-0.372871 11.5876 -0.178909 11.5488 0.0205942 11.5156C0.0316777 11.5156 0.0427609 11.5156 0.0538444 11.5156C0.408517 11.5045 0.231181 11.4934 0.580312 11.4768C0.663439 11.4768 0.746566 11.4657 0.829692 11.4601C0.907277 11.4601 0.984862 11.4491 1.06245 11.4491C1.11232 11.4491 1.16774 11.4491 1.21762 11.4491C1.40049 11.4491 1.18436 11.438 1.36724 11.4324C1.55566 11.4324 1.73854 11.4213 1.92696 11.4158C2.12092 11.4103 2.30934 11.3992 2.5033 11.3881C2.66402 11.377 2.82473 11.3548 2.9799 11.3438C3.02423 11.3438 3.07411 11.3271 3.11844 11.3327C3.45095 11.377 3.11844 11.3105 3.45649 11.305C3.57841 11.305 3.70587 11.305 3.82779 11.305C3.8832 11.305 3.93862 11.2939 3.99958 11.2883C4.07162 11.2883 4.14367 11.2883 4.21571 11.2883C4.3598 11.2883 4.50388 11.2939 4.64797 11.2828C4.79759 11.2662 4.94168 11.2274 5.09685 11.2717C5.15781 11.2883 5.22985 11.2828 5.29635 11.2717C5.53465 11.244 5.77295 11.2218 6.0057 11.1775C6.19966 11.1387 6.38254 11.0667 6.57096 11.0113C6.68734 10.978 6.79817 10.9503 6.91455 10.917C6.99767 10.8893 7.0808 10.8616 7.15839 10.8228C7.33572 10.7342 7.51306 10.6455 7.67931 10.5513C7.93977 10.4017 8.19469 10.2465 8.45516 10.0913C8.45516 10.0913 8.46624 10.0913 8.46624 10.0802C8.64358 9.91953 8.82091 9.75328 9.00933 9.59257C9.31413 9.3321 9.51364 8.98851 9.76856 8.68926C9.78518 8.66709 9.80181 8.65046 9.81289 8.6283C9.97914 8.29025 10.1509 7.9522 10.3172 7.61416C10.4447 7.35923 10.5222 7.09323 10.5832 6.82168C10.6497 6.53351 10.6774 6.2398 10.7273 5.94609C10.7716 5.70779 10.7439 5.46949 10.7439 5.2312L10.7384 5.23674Z" fill="currentColor"/>
</svg>
